<svg id="Layer_1" enable-background="new 0 0 512 512" viewBox="0 0 512 512" xmlns="http://www.w3.org/2000/svg"><g><path d="m437.02 74.98c-48.353-48.351-112.64-74.98-181.02-74.98s-132.667 26.629-181.02 74.98c-48.351 48.353-74.98 112.64-74.98 181.02s26.629 132.667 74.98 181.02c48.353 48.351 112.64 74.98 181.02 74.98s132.667-26.629 181.02-74.98c48.351-48.353 74.98-112.64 74.98-181.02s-26.629-132.667-74.98-181.02zm-21.214 340.826c-42.686 42.686-99.439 66.194-159.806 66.194s-117.12-23.508-159.806-66.194-66.194-99.439-66.194-159.806 23.508-117.12 66.194-159.806 99.439-66.194 159.806-66.194 117.12 23.508 159.806 66.194 66.194 99.439 66.194 159.806-23.508 117.12-66.194 159.806z"/><path d="m167.741 203.54c-5.858-5.857-15.355-5.857-21.213 0-5.857 5.858-5.857 15.355 0 21.213 8.34 8.339 12.933 19.428 12.933 31.224 0 11.795-4.593 22.884-12.933 31.224-5.858 5.858-5.858 15.355 0 21.213 5.179 5.023 14.622 6.368 21.213 0 14.006-14.006 21.72-32.629 21.72-52.437 0-19.809-7.714-38.432-21.72-52.437z"/><path d="m210.232 164.048c-5.857-5.858-15.355-5.858-21.213 0s-5.858 15.355 0 21.213c18.889 18.889 29.291 44.003 29.291 70.716 0 24.733-9.099 48.473-25.62 66.845-5.54 6.16-5.037 15.644 1.123 21.183 5.139 4.586 14.942 5.653 21.184-1.123 21.482-23.889 33.313-54.752 33.313-86.905.001-34.726-13.522-67.374-38.078-91.929z"/><path d="m260.059 130.883c-5.571-6.132-15.058-6.585-21.189-1.015-6.131 5.571-6.586 15.058-1.015 21.189 26.133 28.762 40.525 66.023 40.525 104.92s-14.392 76.158-40.525 104.92c-5.571 6.131-5.116 15.618 1.015 21.189 5.104 4.604 14.927 5.734 21.189-1.015 31.16-34.295 48.321-78.721 48.321-125.094s-17.161-90.798-48.321-125.094z"/><path d="m283.827 90.119c-6.068 5.64-6.417 15.13-.777 21.199 36.638 39.427 56.816 90.801 56.816 144.659 0 53.879-20.192 105.269-56.856 144.702-5.641 6.067-5.295 15.558.771 21.199 5.025 4.644 14.891 5.914 21.199-.771 41.842-45.002 64.885-103.646 64.885-165.129 0-61.458-23.027-120.085-64.839-165.081-5.64-6.069-15.131-6.418-21.199-.778z"/></g><g/><g/><g/><g/><g/><g/><g/><g/><g/><g/><g/><g/><g/><g/><g/></svg>